<svg id="dsh-diagram-factory-responsibilities" width="100%" xmlns="http://www.w3.org/2000/svg" class="flowchart" viewBox="-91.41731262207031 -67.75 1824.3860626220703 337.5" role="graphics-document document" aria-roledescription="flowchart-v2"><style>#dsh-diagram-factory-responsibilities{font-family:Inter,ui-sans-serif,system-ui,sans-serif;font-size:14px;fill:#0b0f19;}@keyframes edge-animation-frame{from{stroke-dashoffset:0;}}@keyframes dash{to{stroke-dashoffset:0;}}#dsh-diagram-factory-responsibilities .edge-animation-slow{stroke-dasharray:9,5!important;stroke-dashoffset:900;animation:dash 50s linear infinite;stroke-linecap:round;}#dsh-diagram-factory-responsibilities .edge-animation-fast{stroke-dasharray:9,5!important;stroke-dashoffset:900;animation:dash 20s linear infinite;stroke-linecap:round;}#dsh-diagram-factory-responsibilities .error-icon{fill:#ffffff;}#dsh-diagram-factory-responsibilities .error-text{fill:#000000;stroke:#000000;}#dsh-diagram-factory-responsibilities .edge-thickness-normal{stroke-width:1px;}#dsh-diagram-factory-responsibilities .edge-thickness-thick{stroke-width:3.5px;}#dsh-diagram-factory-responsibilities .edge-pattern-solid{stroke-dasharray:0;}#dsh-diagram-factory-responsibilities .edge-thickness-invisible{stroke-width:0;fill:none;}#dsh-diagram-factory-responsibilities .edge-pattern-dashed{stroke-dasharray:3;}#dsh-diagram-factory-responsibilities .edge-pattern-dotted{stroke-dasharray:2;}#dsh-diagram-factory-responsibilities .marker{fill:#64748b;stroke:#64748b;}#dsh-diagram-factory-responsibilities .marker.cross{stroke:#64748b;}#dsh-diagram-factory-responsibilities svg{font-family:Inter,ui-sans-serif,system-ui,sans-serif;font-size:14px;}#dsh-diagram-factory-responsibilities p{margin:0;}#dsh-diagram-factory-responsibilities .label{font-family:Inter,ui-sans-serif,system-ui,sans-serif;color:#0b0f19;}#dsh-diagram-factory-responsibilities .cluster-label text{fill:#000000;}#dsh-diagram-factory-responsibilities .cluster-label span{color:#000000;}#dsh-diagram-factory-responsibilities .cluster-label span p{background-color:transparent;}#dsh-diagram-factory-responsibilities .label text,#dsh-diagram-factory-responsibilities span{fill:#0b0f19;color:#0b0f19;}#dsh-diagram-factory-responsibilities .node rect,#dsh-diagram-factory-responsibilities .node circle,#dsh-diagram-factory-responsibilities .node ellipse,#dsh-diagram-factory-responsibilities .node polygon,#dsh-diagram-factory-responsibilities .node path{fill:#f0f4ff;stroke:#0052ff;stroke-width:1px;}#dsh-diagram-factory-responsibilities .rough-node .label text,#dsh-diagram-factory-responsibilities .node .label text,#dsh-diagram-factory-responsibilities .image-shape .label,#dsh-diagram-factory-responsibilities .icon-shape .label{text-anchor:middle;}#dsh-diagram-factory-responsibilities .node .katex path{fill:#000;stroke:#000;stroke-width:1px;}#dsh-diagram-factory-responsibilities .rough-node .label,#dsh-diagram-factory-responsibilities .node .label,#dsh-diagram-factory-responsibilities .image-shape .label,#dsh-diagram-factory-responsibilities .icon-shape .label{text-align:center;}#dsh-diagram-factory-responsibilities .node.clickable{cursor:pointer;}#dsh-diagram-factory-responsibilities .root .anchor path{fill:#64748b!important;stroke-width:0;stroke:#64748b;}#dsh-diagram-factory-responsibilities .arrowheadPath{fill:#0b0b0b;}#dsh-diagram-factory-responsibilities .edgePath .path{stroke:#64748b;stroke-width:2.0px;}#dsh-diagram-factory-responsibilities .flowchart-link{stroke:#64748b;fill:none;}#dsh-diagram-factory-responsibilities .edgeLabel{background-color:#ffffff;text-align:center;}#dsh-diagram-factory-responsibilities .edgeLabel p{background-color:#ffffff;}#dsh-diagram-factory-responsibilities .edgeLabel rect{opacity:0.5;background-color:#ffffff;fill:#ffffff;}#dsh-diagram-factory-responsibilities .labelBkg{background-color:rgba(255, 255, 255, 0.5);}#dsh-diagram-factory-responsibilities .cluster rect{fill:#f8fafc;stroke:#e2e8f0;stroke-width:1px;}#dsh-diagram-factory-responsibilities .cluster text{fill:#000000;}#dsh-diagram-factory-responsibilities .cluster span{color:#000000;}#dsh-diagram-factory-responsibilities div.mermaidTooltip{position:absolute;text-align:center;max-width:200px;padding:2px;font-family:Inter,ui-sans-serif,system-ui,sans-serif;font-size:12px;background:#ffffff;border:1px solid #e2e8f0;border-radius:2px;pointer-events:none;z-index:100;}#dsh-diagram-factory-responsibilities .flowchartTitleText{text-anchor:middle;font-size:18px;fill:#0b0f19;}#dsh-diagram-factory-responsibilities rect.text{fill:none;stroke-width:0;}#dsh-diagram-factory-responsibilities .icon-shape,#dsh-diagram-factory-responsibilities .image-shape{background-color:#ffffff;text-align:center;}#dsh-diagram-factory-responsibilities .icon-shape p,#dsh-diagram-factory-responsibilities .image-shape p{background-color:#ffffff;padding:2px;}#dsh-diagram-factory-responsibilities .icon-shape rect,#dsh-diagram-factory-responsibilities .image-shape rect{opacity:0.5;background-color:#ffffff;fill:#ffffff;}#dsh-diagram-factory-responsibilities .label-icon{display:inline-block;height:1em;overflow:visible;vertical-align:-0.125em;}#dsh-diagram-factory-responsibilities .node .label-icon path{fill:currentColor;stroke:revert;stroke-width:revert;}#dsh-diagram-factory-responsibilities :root{--mermaid-font-family:"trebuchet ms",verdana,arial,sans-serif;}</style><g><marker id="dsh-diagram-factory-responsibilities_flowchart-v2-pointEnd" class="marker flowchart-v2" viewBox="0 0 10 10" refX="5" refY="5" markerUnits="userSpaceOnUse" markerWidth="8" markerHeight="8" orient="auto"><path d="M 0 0 L 10 5 L 0 10 z" class="arrowMarkerPath" style="stroke-width: 1; stroke-dasharray: 1, 0;"/></marker><marker id="dsh-diagram-factory-responsibilities_flowchart-v2-pointStart" class="marker flowchart-v2" viewBox="0 0 10 10" refX="4.5" refY="5" markerUnits="userSpaceOnUse" markerWidth="8" markerHeight="8" orient="auto"><path d="M 0 5 L 10 10 L 10 0 z" class="arrowMarkerPath" style="stroke-width: 1; stroke-dasharray: 1, 0;"/></marker><marker id="dsh-diagram-factory-responsibilities_flowchart-v2-circleEnd" class="marker flowchart-v2" viewBox="0 0 10 10" refX="11" refY="5" markerUnits="userSpaceOnUse" markerWidth="11" markerHeight="11" orient="auto"><circle cx="5" cy="5" r="5" class="arrowMarkerPath" style="stroke-width: 1; stroke-dasharray: 1, 0;"/></marker><marker id="dsh-diagram-factory-responsibilities_flowchart-v2-circleStart" class="marker flowchart-v2" viewBox="0 0 10 10" refX="-1" refY="5" markerUnits="userSpaceOnUse" markerWidth="11" markerHeight="11" orient="auto"><circle cx="5" cy="5" r="5" class="arrowMarkerPath" style="stroke-width: 1; stroke-dasharray: 1, 0;"/></marker><marker id="dsh-diagram-factory-responsibilities_flowchart-v2-crossEnd" class="marker cross flowchart-v2" viewBox="0 0 11 11" refX="12" refY="5.2" markerUnits="userSpaceOnUse" markerWidth="11" markerHeight="11" orient="auto"><path d="M 1,1 l 9,9 M 10,1 l -9,9" class="arrowMarkerPath" style="stroke-width: 2; stroke-dasharray: 1, 0;"/></marker><marker id="dsh-diagram-factory-responsibilities_flowchart-v2-crossStart" class="marker cross flowchart-v2" viewBox="0 0 11 11" refX="-1" refY="5.2" markerUnits="userSpaceOnUse" markerWidth="11" markerHeight="11" orient="auto"><path d="M 1,1 l 9,9 M 10,1 l -9,9" class="arrowMarkerPath" style="stroke-width: 2; stroke-dasharray: 1, 0;"/></marker><g class="root"><g class="clusters"/><g class="edgePaths"><path d="M147.997,93.5L168.685,117.292C189.373,141.083,230.749,188.667,254.937,212.458C279.125,236.25,286.125,236.25,289.625,236.25L293.125,236.25" id="L_FACTORY_G_0" class="edge-thickness-normal edge-pattern-solid edge-thickness-normal edge-pattern-solid flowchart-link" style=";" data-edge="true" data-et="edge" data-id="L_FACTORY_G_0" data-points="W3sieCI6MTQ3Ljk5Njg5ODQ5NjI0MDYsInkiOjkzLjV9LHsieCI6MjcyLjEyNSwieSI6MjM2LjI1fSx7IngiOjI5Ny4xMjUsInkiOjIzNi4yNX1d" marker-end="url(#dsh-diagram-factory-responsibilities_flowchart-v2-pointEnd)"/><path d="M159.091,93.5L177.93,107.542C196.769,121.583,234.447,149.667,266.895,163.708C299.344,177.75,326.563,177.75,353.781,177.75C381,177.75,408.219,177.75,425.364,178.951C442.508,180.152,449.579,182.555,453.115,183.756L456.65,184.957" id="L_FACTORY_D_0" class="edge-thickness-normal edge-pattern-solid edge-thickness-normal edge-pattern-solid flowchart-link" style=";" data-edge="true" data-et="edge" data-id="L_FACTORY_D_0" data-points="W3sieCI6MTU5LjA5MTIxMjI5Njk4Mzc3LCJ5Ijo5My41fSx7IngiOjI3Mi4xMjUsInkiOjE3Ny43NX0seyJ4IjozNTMuNzgxMjUsInkiOjE3Ny43NX0seyJ4Ijo0MzUuNDM3NSwieSI6MTc3Ljc1fSx7IngiOjQ2MC40Mzc1LCJ5IjoxODYuMjQzNjQ3OTEyODg1NjV9XQ==" marker-end="url(#dsh-diagram-factory-responsibilities_flowchart-v2-pointEnd)"/><path d="M177.157,93.5L192.985,101C208.813,108.5,240.469,123.5,269.906,131C299.344,138.5,326.563,138.5,353.781,138.5C381,138.5,408.219,138.5,436.177,138.5C464.135,138.5,492.833,138.5,521.531,138.5C550.229,138.5,578.927,138.5,600.348,140.91C621.768,143.32,635.911,148.14,642.983,150.55L650.054,152.96" id="L_FACTORY_K_0" class="edge-thickness-normal edge-pattern-solid edge-thickness-normal edge-pattern-solid flowchart-link" style=";" data-edge="true" data-et="edge" data-id="L_FACTORY_K_0" data-points="W3sieCI6MTc3LjE1NjkzNDMwNjU2OTMzLCJ5Ijo5My41fSx7IngiOjI3Mi4xMjUsInkiOjEzOC41fSx7IngiOjM1My43ODEyNSwieSI6MTM4LjV9LHsieCI6NDM1LjQzNzUsInkiOjEzOC41fSx7IngiOjUyMS41MzEyNSwieSI6MTM4LjV9LHsieCI6NjA3LjYyNSwieSI6MTM4LjV9LHsieCI6NjUzLjg0MDQ2NTc2NDMzMTIsInkiOjE1NC4yNX1d" marker-end="url(#dsh-diagram-factory-responsibilities_flowchart-v2-pointEnd)"/><path d="M243.707,93.5L248.443,94.458C253.179,95.417,262.652,97.333,280.998,98.292C299.344,99.25,326.563,99.25,353.781,99.25C381,99.25,408.219,99.25,436.177,99.25C464.135,99.25,492.833,99.25,521.531,99.25C550.229,99.25,578.927,99.25,612.471,99.25C646.016,99.25,684.406,99.25,722.797,99.25C761.188,99.25,799.578,99.25,827.924,103.273C856.269,107.297,874.569,115.343,883.719,119.367L892.87,123.39" id="L_FACTORY_W_0" class="edge-thickness-normal edge-pattern-solid edge-thickness-normal edge-pattern-solid flowchart-link" style=";" data-edge="true" data-et="edge" data-id="L_FACTORY_W_0" data-points="W3sieCI6MjQzLjcwNjczMDc2OTIzMDc3LCJ5Ijo5My41fSx7IngiOjI3Mi4xMjUsInkiOjk5LjI1fSx7IngiOjM1My43ODEyNSwieSI6OTkuMjV9LHsieCI6NDM1LjQzNzUsInkiOjk5LjI1fSx7IngiOjUyMS41MzEyNSwieSI6OTkuMjV9LHsieCI6NjA3LjYyNSwieSI6OTkuMjV9LHsieCI6NzIyLjc5Njg3NSwieSI6OTkuMjV9LHsieCI6ODM3Ljk2ODc1LCJ5Ijo5OS4yNX0seyJ4Ijo4OTYuNTMxMjEwMzQyNjM5NiwieSI6MTI1fV0=" marker-end="url(#dsh-diagram-factory-responsibilities_flowchart-v2-pointEnd)"/><path d="M247.125,61.729L251.292,61.441C255.458,61.153,263.792,60.576,281.568,60.288C299.344,60,326.563,60,353.781,60C381,60,408.219,60,436.177,60C464.135,60,492.833,60,521.531,60C550.229,60,578.927,60,612.471,60C646.016,60,684.406,60,722.797,60C761.188,60,799.578,60,837.441,60C875.305,60,912.641,60,949.977,60C987.313,60,1024.648,60,1050.621,65.555C1076.594,71.11,1091.203,82.219,1098.507,87.774L1105.812,93.329" id="L_FACTORY_R_0" class="edge-thickness-normal edge-pattern-solid edge-thickness-normal edge-pattern-solid flowchart-link" style=";" data-edge="true" data-et="edge" data-id="L_FACTORY_R_0" data-points="W3sieCI6MjQ3LjEyNSwieSI6NjEuNzI5MzU1ODE0OTU4OTN9LHsieCI6MjcyLjEyNSwieSI6NjB9LHsieCI6MzUzLjc4MTI1LCJ5Ijo2MH0seyJ4Ijo0MzUuNDM3NSwieSI6NjB9LHsieCI6NTIxLjUzMTI1LCJ5Ijo2MH0seyJ4Ijo2MDcuNjI1LCJ5Ijo2MH0seyJ4Ijo3MjIuNzk2ODc1LCJ5Ijo2MH0seyJ4Ijo4MzcuOTY4NzUsInkiOjYwfSx7IngiOjk0OS45NzY1NjI1LCJ5Ijo2MH0seyJ4IjoxMDYxLjk4NDM3NSwieSI6NjB9LHsieCI6MTEwOC45OTU4MTM1NTQ4NTIyLCJ5Ijo5NS43NX1d" marker-end="url(#dsh-diagram-factory-responsibilities_flowchart-v2-pointEnd)"/><path d="M196.542,46.5L209.139,42.208C221.736,37.917,246.931,29.333,273.137,25.042C299.344,20.75,326.563,20.75,353.781,20.75C381,20.75,408.219,20.75,436.177,20.75C464.135,20.75,492.833,20.75,521.531,20.75C550.229,20.75,578.927,20.75,612.471,20.75C646.016,20.75,684.406,20.75,722.797,20.75C761.188,20.75,799.578,20.75,837.441,20.75C875.305,20.75,912.641,20.75,949.977,20.75C987.313,20.75,1024.648,20.75,1056.302,20.75C1087.956,20.75,1113.927,20.75,1139.898,20.75C1165.87,20.75,1191.841,20.75,1214.752,27.982C1237.662,35.215,1257.512,49.68,1267.437,56.912L1277.362,64.144" id="L_FACTORY_C_0" class="edge-thickness-normal edge-pattern-solid edge-thickness-normal edge-pattern-solid flowchart-link" style=";" data-edge="true" data-et="edge" data-id="L_FACTORY_C_0" data-points="W3sieCI6MTk2LjU0MTU2MDkxMzcwNTU4LCJ5Ijo0Ni41fSx7IngiOjI3Mi4xMjUsInkiOjIwLjc1fSx7IngiOjM1My43ODEyNSwieSI6MjAuNzV9LHsieCI6NDM1LjQzNzUsInkiOjIwLjc1fSx7IngiOjUyMS41MzEyNSwieSI6MjAuNzV9LHsieCI6NjA3LjYyNSwieSI6MjAuNzV9LHsieCI6NzIyLjc5Njg3NSwieSI6MjAuNzV9LHsieCI6ODM3Ljk2ODc1LCJ5IjoyMC43NX0seyJ4Ijo5NDkuOTc2NTYyNSwieSI6MjAuNzV9LHsieCI6MTA2MS45ODQzNzUsInkiOjIwLjc1fSx7IngiOjExMzkuODk4NDM3NSwieSI6MjAuNzV9LHsieCI6MTIxNy44MTI1LCJ5IjoyMC43NX0seyJ4IjoxMjgwLjU5NDg3ODE1ODg0NDcsInkiOjY2LjV9XQ==" marker-end="url(#dsh-diagram-factory-responsibilities_flowchart-v2-pointEnd)"/><path d="M165.949,46.5L183.645,35.667C201.341,24.833,236.733,3.167,268.038,-7.667C299.344,-18.5,326.563,-18.5,353.781,-18.5C381,-18.5,408.219,-18.5,436.177,-18.5C464.135,-18.5,492.833,-18.5,521.531,-18.5C550.229,-18.5,578.927,-18.5,612.471,-18.5C646.016,-18.5,684.406,-18.5,722.797,-18.5C761.188,-18.5,799.578,-18.5,837.441,-18.5C875.305,-18.5,912.641,-18.5,949.977,-18.5C987.313,-18.5,1024.648,-18.5,1056.302,-18.5C1087.956,-18.5,1113.927,-18.5,1139.898,-18.5C1165.87,-18.5,1191.841,-18.5,1220.665,-18.5C1249.49,-18.5,1281.167,-18.5,1312.844,-18.5C1344.521,-18.5,1376.198,-18.5,1400.658,-9.685C1425.118,-0.87,1442.36,16.76,1450.981,25.575L1459.603,34.39" id="L_FACTORY_E_0" class="edge-thickness-normal edge-pattern-solid edge-thickness-normal edge-pattern-solid flowchart-link" style=";" data-edge="true" data-et="edge" data-id="L_FACTORY_E_0" data-points="W3sieCI6MTY1Ljk0OTE1MjU0MjM3Mjg3LCJ5Ijo0Ni41fSx7IngiOjI3Mi4xMjUsInkiOi0xOC41fSx7IngiOjM1My43ODEyNSwieSI6LTE4LjV9LHsieCI6NDM1LjQzNzUsInkiOi0xOC41fSx7IngiOjUyMS41MzEyNSwieSI6LTE4LjV9LHsieCI6NjA3LjYyNSwieSI6LTE4LjV9LHsieCI6NzIyLjc5Njg3NSwieSI6LTE4LjV9LHsieCI6ODM3Ljk2ODc1LCJ5IjotMTguNX0seyJ4Ijo5NDkuOTc2NTYyNSwieSI6LTE4LjV9LHsieCI6MTA2MS45ODQzNzUsInkiOi0xOC41fSx7IngiOjExMzkuODk4NDM3NSwieSI6LTE4LjV9LHsieCI6MTIxNy44MTI1LCJ5IjotMTguNX0seyJ4IjoxMzEyLjg0Mzc1LCJ5IjotMTguNX0seyJ4IjoxNDA3Ljg3NSwieSI6LTE4LjV9LHsieCI6MTQ2Mi4zOTk0MjMzMDQ0MTY0LCJ5IjozNy4yNX1d" marker-end="url(#dsh-diagram-factory-responsibilities_flowchart-v2-pointEnd)"/><path d="M154.155,46.5L173.817,29.125C193.478,11.75,232.802,-23,266.073,-40.375C299.344,-57.75,326.563,-57.75,353.781,-57.75C381,-57.75,408.219,-57.75,436.177,-57.75C464.135,-57.75,492.833,-57.75,521.531,-57.75C550.229,-57.75,578.927,-57.75,612.471,-57.75C646.016,-57.75,684.406,-57.75,722.797,-57.75C761.188,-57.75,799.578,-57.75,837.441,-57.75C875.305,-57.75,912.641,-57.75,949.977,-57.75C987.313,-57.75,1024.648,-57.75,1056.302,-57.75C1087.956,-57.75,1113.927,-57.75,1139.898,-57.75C1165.87,-57.75,1191.841,-57.75,1220.665,-57.75C1249.49,-57.75,1281.167,-57.75,1312.844,-57.75C1344.521,-57.75,1376.198,-57.75,1404.954,-57.75C1433.711,-57.75,1459.547,-57.75,1485.383,-57.75C1511.219,-57.75,1537.055,-57.75,1560.855,-47.254C1584.655,-36.759,1606.42,-15.768,1617.302,-5.272L1628.185,5.223" id="L_FACTORY_S_0" class="edge-thickness-normal edge-pattern-solid edge-thickness-normal edge-pattern-solid flowchart-link" style=";" data-edge="true" data-et="edge" data-id="L_FACTORY_S_0" data-points="W3sieCI6MTU0LjE1NTIxMDM3MTgxOTk4LCJ5Ijo0Ni41fSx7IngiOjI3Mi4xMjUsInkiOi01Ny43NX0seyJ4IjozNTMuNzgxMjUsInkiOi01Ny43NX0seyJ4Ijo0MzUuNDM3NSwieSI6LTU3Ljc1fSx7IngiOjUyMS41MzEyNSwieSI6LTU3Ljc1fSx7IngiOjYwNy42MjUsInkiOi01Ny43NX0seyJ4Ijo3MjIuNzk2ODc1LCJ5IjotNTcuNzV9LHsieCI6ODM3Ljk2ODc1LCJ5IjotNTcuNzV9LHsieCI6OTQ5Ljk3NjU2MjUsInkiOi01Ny43NX0seyJ4IjoxMDYxLjk4NDM3NSwieSI6LTU3Ljc1fSx7IngiOjExMzkuODk4NDM3NSwieSI6LTU3Ljc1fSx7IngiOjEyMTcuODEyNSwieSI6LTU3Ljc1fSx7IngiOjEzMTIuODQzNzUsInkiOi01Ny43NX0seyJ4IjoxNDA3Ljg3NSwieSI6LTU3Ljc1fSx7IngiOjE0ODUuMzgyODEyNSwieSI6LTU3Ljc1fSx7IngiOjE1NjIuODkwNjI1LCJ5IjotNTcuNzV9LHsieCI6MTYzMS4wNjM2NTk4Mzg5MzU2LCJ5Ijo4fV0=" marker-end="url(#dsh-diagram-factory-responsibilities_flowchart-v2-pointEnd)"/><path d="M410.438,236.25L414.604,236.25C418.771,236.25,427.104,236.25,435.438,234.834C443.771,233.419,452.104,230.588,456.271,229.172L460.438,227.756" id="L_G_D_0" class="edge-thickness-invisible edge-pattern-solid" style=";" data-edge="true" data-et="edge" data-id="L_G_D_0" data-points="W3sieCI6NDEwLjQzNzUsInkiOjIzNi4yNX0seyJ4Ijo0MzUuNDM3NSwieSI6MjM2LjI1fSx7IngiOjQ2MC40Mzc1LCJ5IjoyMjcuNzU2MzUyMDg3MTE0MzV9XQ=="/><path d="M582.625,207L586.792,207C590.958,207,599.292,207,607.625,205.942C615.958,204.884,624.292,202.767,628.458,201.709L632.625,200.651" id="L_D_K_0" class="edge-thickness-invisible edge-pattern-solid" style=";" data-edge="true" data-et="edge" data-id="L_D_K_0" data-points="W3sieCI6NTgyLjYyNSwieSI6MjA3fSx7IngiOjYwNy42MjUsInkiOjIwN30seyJ4Ijo2MzIuNjI1LCJ5IjoyMDAuNjUwNzkzNjUwNzkzNjR9XQ=="/><path d="M812.969,177.75L817.135,177.75C821.302,177.75,829.635,177.75,837.969,176.662C846.302,175.574,854.635,173.398,858.802,172.31L862.969,171.221" id="L_K_W_0" class="edge-thickness-invisible edge-pattern-solid" style=";" data-edge="true" data-et="edge" data-id="L_K_W_0" data-points="W3sieCI6ODEyLjk2ODc1LCJ5IjoxNzcuNzV9LHsieCI6ODM3Ljk2ODc1LCJ5IjoxNzcuNzV9LHsieCI6ODYyLjk2ODc1LCJ5IjoxNzEuMjIxNDM3NTM5MjM0MTZ9XQ=="/><path d="M1036.984,148.5L1041.151,148.5C1045.318,148.5,1053.651,148.5,1061.984,146.936C1070.318,145.372,1078.651,142.243,1082.818,140.679L1086.984,139.115" id="L_W_R_0" class="edge-thickness-invisible edge-pattern-solid" style=";" data-edge="true" data-et="edge" data-id="L_W_R_0" data-points="W3sieCI6MTAzNi45ODQzNzUsInkiOjE0OC41fSx7IngiOjEwNjEuOTg0Mzc1LCJ5IjoxNDguNX0seyJ4IjoxMDg2Ljk4NDM3NSwieSI6MTM5LjExNDY1OTU4MDg2ODMzfV0="/><path d="M1192.813,119.25L1196.979,119.25C1201.146,119.25,1209.479,119.25,1217.813,117.968C1226.146,116.685,1234.479,114.12,1238.646,112.838L1242.813,111.555" id="L_R_C_0" class="edge-thickness-invisible edge-pattern-solid" style=";" data-edge="true" data-et="edge" data-id="L_R_C_0" data-points="W3sieCI6MTE5Mi44MTI1LCJ5IjoxMTkuMjV9LHsieCI6MTIxNy44MTI1LCJ5IjoxMTkuMjV9LHsieCI6MTI0Mi44MTI1LCJ5IjoxMTEuNTU1MTYyNzc1NDAyODN9XQ=="/><path d="M1382.875,90L1387.042,90C1391.208,90,1399.542,90,1407.875,88.428C1416.208,86.855,1424.542,83.71,1428.708,82.138L1432.875,80.565" id="L_C_E_0" class="edge-thickness-invisible edge-pattern-solid" style=";" data-edge="true" data-et="edge" data-id="L_C_E_0" data-points="W3sieCI6MTM4Mi44NzUsInkiOjkwfSx7IngiOjE0MDcuODc1LCJ5Ijo5MH0seyJ4IjoxNDMyLjg3NSwieSI6ODAuNTY1NDY3MTkwODA3Mzh9XQ=="/><path d="M1537.891,60.75L1542.057,60.75C1546.224,60.75,1554.557,60.75,1562.891,59.433C1571.224,58.116,1579.557,55.482,1583.724,54.165L1587.891,52.848" id="L_E_S_0" class="edge-thickness-invisible edge-pattern-solid" style=";" data-edge="true" data-et="edge" data-id="L_E_S_0" data-points="W3sieCI6MTUzNy44OTA2MjUsInkiOjYwLjc1fSx7IngiOjE1NjIuODkwNjI1LCJ5Ijo2MC43NX0seyJ4IjoxNTg3Ljg5MDYyNSwieSI6NTIuODQ3OTMxNjE2NzE1OTF9XQ=="/></g><g class="edgeLabels"><g><rect class="background" style="stroke: none"/></g><g><rect class="background" style="stroke: none"/></g><g><rect class="background" style="stroke: none"/></g><g><rect class="background" style="stroke: none"/></g><g><rect class="background" style="stroke: none"/></g><g><rect class="background" style="stroke: none"/></g><g><rect class="background" style="stroke: none"/></g><g><rect class="background" style="stroke: none"/></g><g><rect class="background" style="stroke: none"/></g><g><rect class="background" style="stroke: none"/></g><g><rect class="background" style="stroke: none"/></g><g><rect class="background" style="stroke: none"/></g><g><rect class="background" style="stroke: none"/></g><g><rect class="background" style="stroke: none"/></g><g><rect class="background" style="stroke: none"/></g><g class="edgeLabel"><g class="label" data-id="L_FACTORY_G_0" transform="translate(0, 0)"><text y="-10.1"><tspan class="text-outer-tspan" x="0" y="-0.1em" dy="1.1em"/></text></g></g><g class="edgeLabel"><g class="label" data-id="L_FACTORY_D_0" transform="translate(0, 0)"><text y="-10.1"><tspan class="text-outer-tspan" x="0" y="-0.1em" dy="1.1em"/></text></g></g><g class="edgeLabel"><g class="label" data-id="L_FACTORY_K_0" transform="translate(0, 0)"><text y="-10.1"><tspan class="text-outer-tspan" x="0" y="-0.1em" dy="1.1em"/></text></g></g><g class="edgeLabel"><g class="label" data-id="L_FACTORY_W_0" transform="translate(0, 0)"><text y="-10.1"><tspan class="text-outer-tspan" x="0" y="-0.1em" dy="1.1em"/></text></g></g><g class="edgeLabel"><g class="label" data-id="L_FACTORY_R_0" transform="translate(0, 0)"><text y="-10.1"><tspan class="text-outer-tspan" x="0" y="-0.1em" dy="1.1em"/></text></g></g><g class="edgeLabel"><g class="label" data-id="L_FACTORY_C_0" transform="translate(0, 0)"><text y="-10.1"><tspan class="text-outer-tspan" x="0" y="-0.1em" dy="1.1em"/></text></g></g><g class="edgeLabel"><g class="label" data-id="L_FACTORY_E_0" transform="translate(0, 0)"><text y="-10.1"><tspan class="text-outer-tspan" x="0" y="-0.1em" dy="1.1em"/></text></g></g><g class="edgeLabel"><g class="label" data-id="L_FACTORY_S_0" transform="translate(0, 0)"><text y="-10.1"><tspan class="text-outer-tspan" x="0" y="-0.1em" dy="1.1em"/></text></g></g><g class="edgeLabel"><g class="label" data-id="L_G_D_0" transform="translate(0, 0)"><text y="-10.1"><tspan class="text-outer-tspan" x="0" y="-0.1em" dy="1.1em"/></text></g></g><g class="edgeLabel"><g class="label" data-id="L_D_K_0" transform="translate(0, 0)"><text y="-10.1"><tspan class="text-outer-tspan" x="0" y="-0.1em" dy="1.1em"/></text></g></g><g class="edgeLabel"><g class="label" data-id="L_K_W_0" transform="translate(0, 0)"><text y="-10.1"><tspan class="text-outer-tspan" x="0" y="-0.1em" dy="1.1em"/></text></g></g><g class="edgeLabel"><g class="label" data-id="L_W_R_0" transform="translate(0, 0)"><text y="-10.1"><tspan class="text-outer-tspan" x="0" y="-0.1em" dy="1.1em"/></text></g></g><g class="edgeLabel"><g class="label" data-id="L_R_C_0" transform="translate(0, 0)"><text y="-10.1"><tspan class="text-outer-tspan" x="0" y="-0.1em" dy="1.1em"/></text></g></g><g class="edgeLabel"><g class="label" data-id="L_C_E_0" transform="translate(0, 0)"><text y="-10.1"><tspan class="text-outer-tspan" x="0" y="-0.1em" dy="1.1em"/></text></g></g><g class="edgeLabel"><g class="label" data-id="L_E_S_0" transform="translate(0, 0)"><text y="-10.1"><tspan class="text-outer-tspan" x="0" y="-0.1em" dy="1.1em"/></text></g></g></g><g class="nodes"><g class="node default" id="flowchart-FACTORY-0" transform="translate(127.5625, 70)"><rect class="basic label-container" style="" x="-119.5625" y="-23.5" width="239.125" height="47"/><g class="label" style="" transform="translate(0, -8.5)"><rect/><g><rect class="background" style="stroke: none"/><text y="-10.1" style=""><tspan class="text-outer-tspan" x="0" y="-0.1em" dy="1.1em"><tspan font-style="normal" class="text-inner-tspan" font-weight="normal">plugin-dsh-factory</tspan><tspan font-style="normal" class="text-inner-tspan" font-weight="normal"> supplies</tspan></tspan></text></g></g></g><g class="node default" id="flowchart-G-1" transform="translate(353.78125, 236.25)"><rect class="basic label-container" style="" x="-56.65625" y="-23.5" width="113.3125" height="47"/><g class="label" style="" transform="translate(0, -8.5)"><rect/><g><rect class="background" style="stroke: none"/><text y="-10.1" style=""><tspan class="text-outer-tspan" x="0" y="-0.1em" dy="1.1em"><tspan font-style="normal" class="text-inner-tspan" font-weight="normal">the</tspan><tspan font-style="normal" class="text-inner-tspan" font-weight="normal"> gate</tspan></tspan></text></g></g></g><g class="node default" id="flowchart-D-2" transform="translate(521.53125, 207)"><rect class="basic label-container" style="" x="-61.09375" y="-23.5" width="122.1875" height="47"/><g class="label" style="" transform="translate(0, -8.5)"><rect/><g><rect class="background" style="stroke: none"/><text y="-10.1" style=""><tspan class="text-outer-tspan" x="0" y="-0.1em" dy="1.1em"><tspan font-style="normal" class="text-inner-tspan" font-weight="normal">discovery</tspan></tspan></text></g></g></g><g class="node default" id="flowchart-K-3" transform="translate(722.796875, 177.75)"><rect class="basic label-container" style="" x="-90.171875" y="-23.5" width="180.34375" height="47"/><g class="label" style="" transform="translate(0, -8.5)"><rect/><g><rect class="background" style="stroke: none"/><text y="-10.1" style=""><tspan class="text-outer-tspan" x="0" y="-0.1em" dy="1.1em"><tspan font-style="normal" class="text-inner-tspan" font-weight="normal">the</tspan><tspan font-style="normal" class="text-inner-tspan" font-weight="normal"> union</tspan><tspan font-style="normal" class="text-inner-tspan" font-weight="normal"> keep-list</tspan></tspan></text></g></g></g><g class="node default" id="flowchart-W-4" transform="translate(949.9765625, 148.5)"><rect class="basic label-container" style="" x="-87.0078125" y="-23.5" width="174.015625" height="47"/><g class="label" style="" transform="translate(0, -8.5)"><rect/><g><rect class="background" style="stroke: none"/><text y="-10.1" style=""><tspan class="text-outer-tspan" x="0" y="-0.1em" dy="1.1em"><tspan font-style="normal" class="text-inner-tspan" font-weight="normal">the</tspan><tspan font-style="normal" class="text-inner-tspan" font-weight="normal"> guarded</tspan><tspan font-style="normal" class="text-inner-tspan" font-weight="normal"> write</tspan></tspan></text></g></g></g><g class="node default" id="flowchart-R-5" transform="translate(1139.8984375, 119.25)"><rect class="basic label-container" style="" x="-52.9140625" y="-23.5" width="105.828125" height="47"/><g class="label" style="" transform="translate(0, -8.5)"><rect/><g><rect class="background" style="stroke: none"/><text y="-10.1" style=""><tspan class="text-outer-tspan" x="0" y="-0.1em" dy="1.1em"><tspan font-style="normal" class="text-inner-tspan" font-weight="normal">refresh</tspan></tspan></text></g></g></g><g class="node default" id="flowchart-C-6" transform="translate(1312.84375, 90)"><rect class="basic label-container" style="" x="-70.03125" y="-23.5" width="140.0625" height="47"/><g class="label" style="" transform="translate(0, -8.5)"><rect/><g><rect class="background" style="stroke: none"/><text y="-10.1" style=""><tspan class="text-outer-tspan" x="0" y="-0.1em" dy="1.1em"><tspan font-style="normal" class="text-inner-tspan" font-weight="normal">continuation</tspan></tspan></text></g></g></g><g class="node default" id="flowchart-E-7" transform="translate(1485.3828125, 60.75)"><rect class="basic label-container" style="" x="-52.5078125" y="-23.5" width="105.015625" height="47"/><g class="label" style="" transform="translate(0, -8.5)"><rect/><g><rect class="background" style="stroke: none"/><text y="-10.1" style=""><tspan class="text-outer-tspan" x="0" y="-0.1em" dy="1.1em"><tspan font-style="normal" class="text-inner-tspan" font-weight="normal">effects</tspan></tspan></text></g></g></g><g class="node default" id="flowchart-S-8" transform="translate(1655.4296875, 31.5)"><rect class="basic label-container" style="" x="-67.5390625" y="-23.5" width="135.078125" height="47"/><g class="label" style="" transform="translate(0, -8.5)"><rect/><g><rect class="background" style="stroke: none"/><text y="-10.1" style=""><tspan class="text-outer-tspan" x="0" y="-0.1em" dy="1.1em"><tspan font-style="normal" class="text-inner-tspan" font-weight="normal">the</tspan><tspan font-style="normal" class="text-inner-tspan" font-weight="normal"> schema</tspan></tspan></text></g></g></g></g></g></g></svg>
